<svg width="13" height="25" viewBox="0 0 13 25" fill="none" xmlns="http://www.w3.org/2000/svg">
<path d="M3.71596 14.008C3.62896 14.008 1.71496 14.008 0.844962 14.008C0.380962 14.008 0.235962 13.834 0.235962 13.399C0.235962 12.239 0.235962 11.05 0.235962 9.89C0.235962 9.426 0.409962 9.281 0.844962 9.281H3.71596C3.71596 9.194 3.71596 7.512 3.71596 6.729C3.71596 5.569 3.91896 4.467 4.49896 3.452C5.10796 2.408 5.97796 1.712 7.07996 1.306C7.80496 1.045 8.52996 0.929001 9.31296 0.929001H12.155C12.561 0.929001 12.735 1.103 12.735 1.509V4.815C12.735 5.221 12.561 5.395 12.155 5.395C11.372 5.395 10.589 5.395 9.80596 5.424C9.02296 5.424 8.61696 5.801 8.61696 6.613C8.58796 7.483 8.61696 8.324 8.61696 9.223H11.981C12.445 9.223 12.619 9.397 12.619 9.861V13.37C12.619 13.834 12.474 13.979 11.981 13.979C10.937 13.979 8.70396 13.979 8.61696 13.979V23.433C8.61696 23.926 8.47196 24.1 7.94996 24.1C6.73196 24.1 5.54296 24.1 4.32496 24.1C3.88996 24.1 3.71596 23.926 3.71596 23.491C3.71596 20.446 3.71596 14.095 3.71596 14.008Z" fill="#00BF6F"/>
</svg>
