<svg width="26" height="27" viewBox="0 0 26 27" fill="none" xmlns="http://www.w3.org/2000/svg">
<g clip-path="url(#clip0_68_564)">
<path d="M25.0183 11.2397L14.4131 11.2392C13.9448 11.2392 13.5652 11.6187 13.5652 12.087V15.4749C13.5652 15.9431 13.9448 16.3227 14.4131 16.3227H20.3853C19.7313 18.0199 18.5107 19.4412 16.9535 20.3443L19.5 24.7526C23.5849 22.3901 26 18.2448 26 13.6046C26 12.9438 25.9513 12.4715 25.8539 11.9397C25.7799 11.5356 25.4291 11.2397 25.0183 11.2397Z" fill="#167EE6"/>
<path d="M13 21.413C10.0773 21.413 7.52589 19.8162 6.15555 17.4532L1.74744 19.9939C3.9907 23.8819 8.19305 26.5 13 26.5C15.3581 26.5 17.5832 25.8651 19.5 24.7586V24.7526L16.9535 20.3442C15.7887 21.0198 14.4407 21.413 13 21.413Z" fill="#12B347"/>
<path d="M19.5 24.7586V24.7526L16.9535 20.3442C15.7887 21.0198 14.4408 21.413 13 21.413V26.5C15.3581 26.5 17.5833 25.8651 19.5 24.7586Z" fill="#0F993E"/>
<path d="M5.08696 13.5C5.08696 12.0594 5.48011 10.7116 6.15555 9.54683L1.74743 7.00604C0.634867 8.91679 0 11.1358 0 13.5C0 15.8642 0.634867 18.0832 1.74743 19.994L6.15555 17.4532C5.48011 16.2884 5.08696 14.9406 5.08696 13.5Z" fill="#FFD500"/>
<path d="M13 5.58696C14.9059 5.58696 16.6565 6.26418 18.0239 7.39066C18.3612 7.66853 18.8515 7.64848 19.1605 7.33947L21.561 4.93904C21.9116 4.58845 21.8866 4.01457 21.5121 3.68967C19.2211 1.70214 16.2402 0.5 13 0.5C8.19305 0.5 3.9907 3.11813 1.74744 7.00604L6.15555 9.54683C7.52589 7.18383 10.0773 5.58696 13 5.58696Z" fill="#FF4B26"/>
<path d="M18.0239 7.39066C18.3612 7.66853 18.8516 7.64848 19.1605 7.33947L21.561 4.93904C21.9115 4.58845 21.8865 4.01457 21.5121 3.68967C19.2211 1.70209 16.2402 0.5 13 0.5V5.58696C14.9058 5.58696 16.6565 6.26418 18.0239 7.39066Z" fill="#D93F21"/>
</g>
<defs>
<clipPath id="clip0_68_564">
<rect width="26" height="26" fill="white" transform="translate(0 0.5)"/>
</clipPath>
</defs>
</svg>
