<svg width="29" height="30" viewBox="0 0 29 30" fill="none" xmlns="http://www.w3.org/2000/svg">
<g clip-path="url(#clip0_493_10050)">
<path d="M7.25 6.61357C7.25 5.81279 7.89922 5.16357 8.7 5.16357H27.55C28.3508 5.16357 29 5.81279 29 6.61357C29 7.41436 28.3508 8.06357 27.55 8.06357H8.7C7.89922 8.06357 7.25 7.4143 7.25 6.61357ZM27.55 13.8636H1.45C0.649215 13.8636 0 14.5128 0 15.3136C0 16.1144 0.649215 16.7636 1.45 16.7636H27.55C28.3508 16.7636 29 16.1144 29 15.3136C29 14.5128 28.3508 13.8636 27.55 13.8636ZM27.55 22.5636H14.5C13.6993 22.5636 13.05 23.2128 13.05 24.0136C13.05 24.8143 13.6993 25.4636 14.5 25.4636H27.55C28.3508 25.4636 29 24.8143 29 24.0136C29 23.2128 28.3508 22.5636 27.55 22.5636Z" fill="#00BF6F"/>
</g>
<defs>
<clipPath id="clip0_493_10050">
<rect width="29" height="29" fill="white" transform="translate(0 0.813477)"/>
</clipPath>
</defs>
</svg>
